<svg xmlns="http://www.w3.org/2000/svg" width="2971" height="2945"><path d="m1454.594-.203 3.439-.009c6.035-.015 12.07-.024 18.105-.028 4.85-.005 9.701-.018 14.552-.041 26.606-.124 53.12.167 79.689 1.652l3.337.186A1464.157 1464.157 0 0 1 1789 30l2.512.523C1879.307 48.845 1965.392 74.896 2104 133l3.386 1.537c17.223 7.827 34.186 16.146 51.114 24.588l3.041 1.513a1047.98 1047.98 0 0 1 40.16 21.091c1.97 1.089 3.941 2.173 5.915 3.253 14.572 7.991 28.823 16.44 42.99 25.12 5.03 3.079 10.099 6.075 15.206 9.023 9.984 5.817 19.602 12.195 29.23 18.577 2.175 1.442 4.35 2.882 6.526 4.323 4.247 2.813 8.49 5.63 12.733 8.451 1.687 1.122 3.374 2.243 5.062 3.363A1214.278 1214.278 0 0 1 2353 277l2.677 1.901c11.523 8.196 22.794 16.708 34.007 25.322 1.987 1.524 3.978 3.043 5.972 4.558 7.333 5.59 14.5 11.366 21.64 17.2a808.648 808.648 0 0 0 8.642 6.957c15.339 12.25 30.323 24.904 44.87 38.085A473.125 473.125 0 0 0 2477 376.5c7.658 6.677 15.17 13.52 22.64 20.407 2.09 1.927 4.188 3.847 6.29 5.76 12.328 11.298 24.079 23.19 35.888 35.021 3.084 3.09 6.172 6.174 9.262 9.258 2.41 2.406 4.816 4.814 7.222 7.222 1.138 1.139 2.276 2.277 3.416 3.413 5.976 5.967 11.794 11.995 17.282 18.419a338.09 338.09 0 0 0 3.938 4.219l2.023 2.136L2587 484.5c5.13 5.395 10.144 10.858 15 16.5l1.462 1.698c1.39 1.62 2.777 3.241 4.163 4.865 3.75 4.383 7.512 8.754 11.295 13.109 8.81 10.14 17.567 20.287 25.817 30.891 2.968 3.81 5.99 7.568 9.052 11.302 5.854 7.137 11.486 14.4 16.984 21.815a641.67 641.67 0 0 0 7.079 9.328c7.126 9.244 14.037 18.558 20.56 28.24 3.316 4.92 6.733 9.741 10.276 14.502 4.796 6.47 9.285 13.1 13.708 19.829 1.921 2.9 3.866 5.783 5.811 8.667 8.527 12.657 16.752 25.415 24.493 38.574 1.997 3.35 4.086 6.638 6.175 9.93 35.867 56.866 66.423 117.588 93.125 179.25l1 2.305c23.362 53.908 43.62 109.262 60 165.695l.778 2.68c28.27 97.707 46.636 197.995 54.972 311.007l.18 2.636c1.458 21.786 2.23 43.526 2.238 65.36l.01 6.946c.006 4.826.008 9.652.007 14.479 0 4.856.007 9.712.02 14.568.083 29.506-.263 58.877-2.205 88.324l-.23 3.574c-.439 6.732-.952 13.454-1.52 20.176l-.25 3.005c-8.305 99.224-26.105 198.162-58 303.245l-.78 2.543c-16.906 55.048-36.963 108.772-60.22 161.457l-.988 2.242c-17.188 38.935-35.788 77.43-56.946 114.367a581.223 581.223 0 0 0-7.02 12.68c-6.575 12.168-13.776 23.937-21.003 35.723a929.636 929.636 0 0 0-7.644 12.748c-32.178 54.395-70.118 106.584-110.399 155.24a12171.85 12171.85 0 0 0-4.375 5.375c-3.794 4.64-7.654 9.221-11.539 13.786a521.941 521.941 0 0 0-8.586 10.401c-4.125 5.071-8.496 9.87-12.938 14.66-2.666 2.89-5.258 5.833-7.835 8.801-6.094 6.976-12.356 13.807-18.634 20.617a1363.845 1363.845 0 0 0-5.76 6.29c-11.298 12.328-23.19 24.079-35.021 35.888-3.09 3.084-6.174 6.172-9.258 9.262-2.406 2.41-4.814 4.816-7.222 7.222a3648.135 3648.135 0 0 0-3.413 3.416c-5.967 5.976-11.995 11.794-18.419 17.282a338.09 338.09 0 0 0-4.219 3.938l-2.136 2.023-2.145 2.039c-4.823 4.586-9.69 9.09-14.718 13.45-2.23 1.94-4.413 3.93-6.595 5.925-4.373 3.952-8.897 7.678-13.48 11.383-2.58 2.137-5.054 4.35-7.52 6.617-4.431 4.04-9.068 7.728-13.803 11.398a321.348 321.348 0 0 0-11.884 9.727c-6.674 5.708-13.555 11.128-20.5 16.5l-3.035 2.352c-2.66 2.052-5.326 4.098-7.995 6.139-2.288 1.753-4.572 3.512-6.857 5.27-10.2 7.835-20.499 15.469-31.061 22.808-2.783 1.94-5.548 3.906-8.314 5.87-19.267 13.664-38.924 26.708-58.738 39.561l-2.64 1.714c-14.574 9.435-29.555 18.208-44.512 27.017a3390.373 3390.373 0 0 0-10.258 6.074c-14.963 8.85-30.217 17.089-45.59 25.195l-5.55 2.945c-28.393 15-57.158 29.23-86.532 42.207-1.872.828-3.743 1.66-5.614 2.493-35.171 15.63-71.05 29.46-107.304 42.355l-2.369.846c-59.069 21.084-119.675 37.492-180.985 50.589-2.44.52-4.878 1.046-7.316 1.57-67.481 14.47-136.262 23.06-205.08 27.745l-2.63.18c-21.734 1.458-43.43 2.235-65.214 2.273l-3.439.009c-6.035.015-12.07.024-18.105.028-4.85.005-9.701.018-14.552.041-26.606.124-53.12-.167-79.689-1.652l-3.337-.186c-87.743-5.01-174.791-18.193-260.284-38.443l-2.445-.578C1046.692 2883.588 960.917 2854.07 825 2792l-2.16-1.063c-17.911-8.824-35.78-17.692-53.2-27.46-2.84-1.589-5.69-3.157-8.542-4.723-13.789-7.607-27.28-15.631-40.703-23.856-5.03-3.079-10.1-6.075-15.207-9.023-9.984-5.817-19.602-12.195-29.23-18.577-2.175-1.442-4.35-2.882-6.526-4.323a9098.17 9098.17 0 0 1-12.733-8.451 8377.384 8377.384 0 0 0-5.062-3.363A1214.278 1214.278 0 0 1 618 2668l-2.677-1.901c-11.523-8.196-22.794-16.708-34.007-25.322a1555.038 1555.038 0 0 0-5.972-4.558c-7.333-5.59-14.5-11.366-21.64-17.2a808.648 808.648 0 0 0-8.641-6.956c-15.34-12.251-30.324-24.905-44.872-38.086A473.125 473.125 0 0 0 494 2568.5c-7.658-6.677-15.17-13.52-22.64-20.407a1363.845 1363.845 0 0 0-6.29-5.76c-12.328-11.298-24.079-23.19-35.888-35.021-3.084-3.09-6.172-6.174-9.262-9.258-2.41-2.406-4.816-4.814-7.222-7.222a3648.135 3648.135 0 0 0-3.416-3.413c-5.976-5.967-11.794-11.995-17.282-18.419a338.09 338.09 0 0 0-3.938-4.219l-2.023-2.136L384 2460.5c-5.13-5.395-10.144-10.858-15-16.5l-1.462-1.698c-1.39-1.62-2.777-3.241-4.163-4.865-3.75-4.383-7.512-8.754-11.295-13.109-8.81-10.14-17.567-20.287-25.817-30.891a577.156 577.156 0 0 0-9.052-11.302c-5.854-7.137-11.486-14.4-16.984-21.815a641.67 641.67 0 0 0-7.079-9.328c-7.126-9.244-14.037-18.558-20.56-28.24a381.776 381.776 0 0 0-10.276-14.502c-4.796-6.47-9.285-13.1-13.708-19.829-1.921-2.9-3.866-5.783-5.811-8.667-8.527-12.657-16.752-25.415-24.493-38.574-1.997-3.35-4.086-6.638-6.175-9.93-6.062-9.607-11.73-19.445-17.41-29.28a3606.807 3606.807 0 0 0-4.75-8.193c-8.338-14.404-16.203-29.057-23.965-43.777l-.94-1.781c-16.613-31.5-31.909-63.54-46.06-96.219l-1-2.305C79.504 1960.868 49.995 1868.12 1 1550l-.123-2.36c-.768-15.114-1.04-30.191-1.045-45.324l-.01-6.945c-.006-4.826-.008-9.652-.007-14.479 0-4.856-.007-9.712-.02-14.568C-.289 1436.818.057 1407.447 2 1378l.23-3.574c.439-6.732.952-13.454 1.52-20.176l.25-3.005c8.29-99.057 25.989-197.935 58-303.245l.862-2.794C79.825 990.278 99.763 936.59 123 884l.902-2.045c17.163-38.828 35.66-77.253 56.766-114.1a780.575 780.575 0 0 0 6.883-12.304C200.187 732.51 213.795 710.106 228 688l1.512-2.353c3.8-5.902 7.634-11.78 11.488-17.647l1.924-2.93c7.766-11.799 15.664-23.461 24.01-34.86a549.848 549.848 0 0 0 7.424-10.437c6.334-9.084 12.997-17.892 19.74-26.675 3.488-4.544 6.92-9.127 10.34-13.723a382.527 382.527 0 0 1 12.152-15.469c2.997-3.614 5.953-7.26 8.91-10.906l3.371-4.148c1.848-2.275 3.695-4.55 5.54-6.829 5.559-6.84 11.278-13.535 17.032-20.211a1443.04 1443.04 0 0 0 4.639-5.43c5.464-6.414 11-12.734 16.695-18.944a318.938 318.938 0 0 0 5.598-6.313c3.983-4.577 8.105-9.025 12.235-13.468 2.05-2.207 4.09-4.422 6.119-6.649 11.275-12.308 23.148-24.037 34.959-35.826 3.09-3.084 6.174-6.172 9.258-9.262 2.406-2.41 4.814-4.816 7.222-7.222 1.139-1.138 2.277-2.276 3.413-3.416 5.967-5.976 11.995-11.794 18.419-17.282a338.09 338.09 0 0 0 4.219-3.938l2.136-2.023L478.5 390c4.823-4.586 9.69-9.09 14.718-13.45 2.23-1.94 4.413-3.93 6.594-5.925 4.37-3.947 8.888-7.67 13.465-11.371 2.664-2.205 5.23-4.486 7.785-6.817 3.88-3.528 7.87-6.84 11.989-10.085 3.772-3.008 7.483-6.088 11.199-9.164A937.08 937.08 0 0 1 567 315l3.055-2.375C585.805 300.441 601.776 288.546 618 277l1.703-1.215c11.157-7.95 22.44-15.705 33.797-23.366 2.736-1.847 5.468-3.7 8.2-5.554 12.241-8.28 24.682-16.171 37.3-23.865l3.854-2.368a1550.336 1550.336 0 0 1 110.084-61.585c2.036-1.034 4.072-2.072 6.106-3.11C839.107 145.703 859.411 136.125 880 127l3.803-1.69C966.093 88.795 1052.016 59.887 1172 32l2.59-.56c69.868-15.036 140.883-24.337 212.16-29.19l2.63-.18c21.734-1.458 43.43-2.235 65.214-2.273Z" fill="#71ACAD"/><path d="M2379 1096c4.446 4.155 7.937 8.767 11.5 13.688l1.851 2.534c1.888 2.59 3.77 5.183 5.649 7.778l1.708 2.354c3.236 4.465 6.462 8.937 9.683 13.412 2.7 3.748 5.404 7.49 8.109 11.234l3.238 4.484c2.205 3.053 4.41 6.105 6.617 9.157a4056.893 4056.893 0 0 1 15.844 22.04c5.01 7.025 10.072 14.013 15.128 21.005a350268.8 350268.8 0 0 0 11.423 15.814l305.5 423 1.626 2.251 3.242 4.49c2.745 3.8 5.49 7.6 8.237 11.4a4056.893 4056.893 0 0 1 15.844 22.04c5.01 7.025 10.072 14.013 15.128 21.005a350268.8 350268.8 0 0 0 11.423 15.814l60.125 83.25 3.246 4.493c2.735 3.787 5.468 7.574 8.2 11.362.547.758 1.096 1.515 1.66 2.295a377.911 377.911 0 0 1 3.24 4.58c2.983 4.247 6.01 7.973 9.862 11.462 3.338 3.995 6.102 7.373 5.727 12.817-.7 3.26-1.582 6.41-2.548 9.6l-1.013 3.59A823.78 823.78 0 0 1 2916 1874c-.644 2.204-1.288 4.407-1.93 6.612-1.941 6.586-3.964 13.145-6.008 19.7l-1.105 3.562c-16.655 53.546-36.313 105.83-58.957 157.126l-.988 2.242c-17.188 38.935-35.788 77.43-56.946 114.367a581.223 581.223 0 0 0-7.02 12.68c-6.575 12.168-13.776 23.937-21.003 35.723a929.636 929.636 0 0 0-7.644 12.748c-32.178 54.395-70.118 106.584-110.399 155.24a12171.85 12171.85 0 0 0-4.375 5.375c-3.794 4.64-7.654 9.221-11.539 13.786a521.941 521.941 0 0 0-8.586 10.401c-4.125 5.071-8.496 9.87-12.938 14.66-2.666 2.89-5.258 5.833-7.835 8.801-6.094 6.976-12.356 13.807-18.634 20.617a1363.845 1363.845 0 0 0-5.76 6.29c-11.298 12.328-23.19 24.079-35.021 35.888-3.09 3.084-6.174 6.172-9.258 9.262-2.406 2.41-4.814 4.816-7.222 7.222a3648.135 3648.135 0 0 0-3.413 3.416c-5.967 5.976-11.995 11.794-18.419 17.282a338.09 338.09 0 0 0-4.219 3.938l-2.136 2.023-2.145 2.039c-4.823 4.586-9.69 9.09-14.718 13.45-2.23 1.94-4.413 3.93-6.595 5.925-4.373 3.952-8.897 7.678-13.48 11.383-2.58 2.137-5.054 4.35-7.52 6.617-4.431 4.04-9.068 7.728-13.803 11.398a321.348 321.348 0 0 0-11.884 9.727c-6.674 5.708-13.555 11.128-20.5 16.5l-3.035 2.352c-2.66 2.052-5.326 4.098-7.995 6.139-2.288 1.753-4.572 3.512-6.857 5.27-10.2 7.835-20.499 15.469-31.061 22.808-2.783 1.94-5.548 3.906-8.314 5.87-19.267 13.664-38.924 26.708-58.738 39.561l-2.64 1.714c-14.574 9.435-29.555 18.208-44.512 27.017a3390.373 3390.373 0 0 0-10.258 6.074c-14.963 8.85-30.217 17.089-45.59 25.195l-5.55 2.945c-28.393 15-57.158 29.23-86.532 42.207-1.872.828-3.743 1.66-5.614 2.493-35.171 15.63-71.05 29.46-107.304 42.355l-2.369.846c-59.069 21.084-119.675 37.492-180.985 50.589-2.44.52-4.878 1.046-7.316 1.57-67.481 14.47-136.262 23.06-205.08 27.745l-2.63.18a974.135 974.135 0 0 1-66.339 2.203l-7.202.003c-4.992.001-9.983 0-14.975-.006-6.33-.005-12.66-.002-18.989.004-4.945.004-9.89.002-14.836 0-2.331 0-4.662 0-6.993.002-11.689.01-23.375-.07-35.058-.432l-2.889-.057c-5.163-.195-8.571-.616-12.698-4.042-1.793-2.128-1.793-2.128-3.391-4.418l-1.901-2.338a179.9 179.9 0 0 1-3.677-4.681c-2.317-3.004-4.877-5.73-7.485-8.48-1.73-1.896-3.459-3.791-5.187-5.688-1.812-1.98-3.624-3.96-5.438-5.938l-1.37-1.495c-5.382-5.87-10.787-11.718-16.192-17.567a6170.969 6170.969 0 0 1-18.858-20.483c-5.363-5.855-10.753-11.685-16.142-17.517a6078.61 6078.61 0 0 1-18.856-20.48A3459.476 3459.476 0 0 0 1293 2820.5a3728.55 3728.55 0 0 1-11.5-12.5 5715.765 5715.765 0 0 0-17.5-19 6170.969 6170.969 0 0 1-18.858-20.483c-5.363-5.855-10.753-11.685-16.142-17.517a6170.969 6170.969 0 0 1-18.858-20.483c-5.363-5.855-10.753-11.685-16.142-17.517a6170.969 6170.969 0 0 1-18.858-20.483c-5.363-5.855-10.753-11.685-16.142-17.517a6078.61 6078.61 0 0 1-18.856-20.48A3459.476 3459.476 0 0 0 1130 2643.5a3728.55 3728.55 0 0 1-11.5-12.5 5715.765 5715.765 0 0 0-17.5-19 6170.969 6170.969 0 0 1-18.858-20.483c-5.363-5.855-10.753-11.685-16.142-17.517a6170.969 6170.969 0 0 1-18.858-20.483c-5.363-5.855-10.753-11.685-16.142-17.517a6170.969 6170.969 0 0 1-18.858-20.483c-5.363-5.855-10.753-11.685-16.142-17.517a6078.61 6078.61 0 0 1-18.856-20.48A3459.476 3459.476 0 0 0 967 2466.5a3728.55 3728.55 0 0 1-11.5-12.5 5715.765 5715.765 0 0 0-17.5-19 6170.969 6170.969 0 0 1-18.858-20.483c-5.363-5.855-10.753-11.685-16.142-17.517a6170.969 6170.969 0 0 1-18.858-20.483c-5.363-5.855-10.753-11.685-16.142-17.517a6078.61 6078.61 0 0 1-18.856-20.48A3459.476 3459.476 0 0 0 839 2327.5a3728.55 3728.55 0 0 1-11.5-12.5 5715.765 5715.765 0 0 0-17.5-19 6170.969 6170.969 0 0 1-18.858-20.483c-5.363-5.855-10.753-11.685-16.142-17.517a6170.969 6170.969 0 0 1-18.858-20.483c-5.363-5.855-10.753-11.685-16.142-17.517a6170.969 6170.969 0 0 1-18.858-20.483c-5.363-5.855-10.753-11.685-16.142-17.517a6170.969 6170.969 0 0 1-18.858-20.483c-5.363-5.855-10.753-11.685-16.142-17.517a6078.61 6078.61 0 0 1-18.856-20.48A3459.476 3459.476 0 0 0 641 2112.5a3728.55 3728.55 0 0 1-11.5-12.5c-3.804-4.154-7.616-8.3-11.438-12.438l-1.498-1.623c-2.59-2.805-5.182-5.606-7.779-8.404l-3.16-3.41-1.525-1.645a251.482 251.482 0 0 1-7.725-8.73c-2.077-2.761-2.077-2.761-4.375-3.75l1-2 2.535 1.54c36.172 21.568 76.308 20.413 116.355 10.945 1.968-.452 3.95-.85 5.93-1.243 33.527-6.976 65.732-22.083 96.18-37.242l2.876-1.424C855.674 2011.251 891.8 1986.494 926 1960l2.055-1.583a465.746 465.746 0 0 0 20.892-17.067 392.346 392.346 0 0 1 10.99-9.162c3.694-2.998 7.1-6.105 10.403-9.524 1.733-1.737 3.543-3.322 5.41-4.914 3.926-3.378 7.554-7.02 11.185-10.707 2.576-2.6 5.194-5.07 8.003-7.418 4.23-3.605 7.895-7.68 11.629-11.785 2.846-3.129 5.727-6.187 8.745-9.152 3.11-3.065 6.003-6.257 8.848-9.567 2.035-2.346 4.123-4.638 6.215-6.934 4.73-5.249 9.196-10.683 13.625-16.187a7825.44 7825.44 0 0 1 2.742-3.363c7.541-9.288 14.652-18.86 21.708-28.52 3.47-4.74 7.004-9.433 10.55-14.117l1.431-1.896a922.72 922.72 0 0 1 23.125-29.344c1.295-1.579 2.585-3.163 3.874-4.748 7.955-9.782 16.052-19.425 24.53-28.758a382.245 382.245 0 0 0 5.415-6.129c4.2-4.819 8.532-9.516 12.87-14.21a541.316 541.316 0 0 0 3.926-4.336c7.922-8.772 16.233-17.135 24.6-25.48 2.426-2.42 4.846-4.847 7.266-7.273a15898.5 15898.5 0 0 1 4.693-4.69l2.157-2.162a227.452 227.452 0 0 1 12.316-11.415c2.95-2.56 5.77-5.255 8.61-7.934a262.254 262.254 0 0 1 15.367-13.332c2.616-2.128 5.164-4.313 7.705-6.529 8.411-7.322 17.19-14.085 26.115-20.764l2.334-1.76c41.453-31.224 84.681-57.117 137.793-56.887 2.66-.007 5.32-.015 7.981-.027 6.423-.022 12.845-.017 19.268-.002 5.228.01 10.456.012 15.683.007l2.27-.002 4.568-.005c14.216-.014 28.433.002 42.649.029 12.154.022 24.307.018 36.46-.005a14295.379 14295.379 0 0 1 49.328-.015c5.212.005 10.423-.003 15.635-.014 6.365-.015 12.73-.01 19.095.016 3.237.013 6.474.016 9.711.002 15.143-.06 28.754 1.044 43.225 5.663l3.317 1.049c2.43.806 4.804 1.691 7.183 2.639l2.603 1.018c22.145 8.872 42.632 21.21 62.047 34.982a940.342 940.342 0 0 0 5.46 3.835c8.362 5.872 16.424 12.08 24.39 18.477l1.946 1.56c12.808 10.28 25.33 20.827 37.382 31.987a260.59 260.59 0 0 0 6.797 6.015c3.935 3.405 7.56 7.087 11.188 10.813a135.703 135.703 0 0 0 6.402 5.848c4.832 4.19 9.337 8.682 13.848 13.215 1.217 1.21 1.217 1.21 2.458 2.447 4.326 4.333 8.479 8.747 12.47 13.389 1.906 2.18 3.931 4.21 6.009 6.226 3.35 3.31 6.5 6.707 9.563 10.281 1.923 2.203 3.897 4.351 5.886 6.494a295.205 295.205 0 0 1 13.613 15.756c2.867 3.492 5.836 6.884 8.813 10.282 5.649 6.467 10.982 13.128 16.24 19.915 1.911 2.445 3.862 4.86 5.812 7.275 7.966 9.873 15.553 20.01 23.053 30.24 7.01 9.556 14.095 19.019 21.52 28.257l2.258 2.813c8.929 11.009 18.174 21.714 27.847 32.074a384.696 384.696 0 0 1 5.32 5.82c6.363 7.093 13.035 13.861 19.763 20.605l1.435 1.444c5.042 5.064 10.125 10.011 15.552 14.664 2.961 2.564 5.789 5.268 8.637 7.955a261.581 261.581 0 0 0 15.364 13.328c2.637 2.145 5.202 4.35 7.762 6.584 7.456 6.5 15.233 12.447 23.19 18.317 2.743 2.045 5.428 4.16 8.122 6.271 27.414 21.243 57.26 39.661 87.75 56.125l2.555 1.39c55.958 30.306 132.58 63.884 197.001 45.345 16.463-4.953 31.471-12.292 44.444-23.735l2.441-2.078c17.391-15.132 30.164-33.463 40.559-53.922l1.127-2.209c14.081-28.138 22.67-59.688 27.394-90.664.311-2.033.627-4.064.947-6.095 3.642-23.194 5.003-45.956 4.855-69.381-.014-2.866-.009-5.732-.004-8.598.06-45.276-4.75-90.428-14.694-134.612-1.642-7.369-3.108-14.771-4.58-22.176a5362.152 5362.152 0 0 0-4.983-24.734l-.758-3.726L2494 1619.5a10939.26 10939.26 0 0 1-9.176-45.389 6418.855 6418.855 0 0 0-6.188-30.504c-2.916-14.249-5.831-28.497-8.663-42.763-2.282-11.457-4.634-22.9-6.973-34.344-2.7-13.214-5.401-26.427-8.027-39.656-2.282-11.457-4.634-22.9-6.973-34.344-2.7-13.214-5.401-26.427-8.027-39.656-2.282-11.457-4.634-22.9-6.973-34.344-2.7-13.214-5.401-26.427-8.027-39.656-2.718-13.644-5.525-27.27-8.314-40.898-1.956-9.563-3.905-19.127-5.784-28.705-6.924-35.274-14.906-70.214-29.081-103.375l-1.106-2.604-.989-2.283C2379 1099 2379 1099 2379 1096Z" fill="#366673"/><path d="M1112.865 794.737c4.42.004 8.84-.003 13.26-.01 7.727-.008 15.453-.01 23.18-.006 11.49.006 22.98 0 34.47-.009 21.723-.015 43.445-.017 65.167-.014a137890.983 137890.983 0 0 0 68.509-.01c33.821-.008 67.643-.012 101.465-.008h3.86l19.369.003h3.885l7.778.002c40.323.005 80.647-.003 120.97-.021a249269.843 249269.843 0 0 1 150.597-.027h3.613c17.949.002 35.897-.005 53.846-.015 20.43-.012 40.862-.014 61.292-.002 11.413.007 22.827.006 34.24-.008 7.649-.008 15.298-.006 22.947.006 4.341.006 8.682.008 13.024-.004 32.019-.082 63.15 2.512 94.663 8.386l3.494.62C2089.742 817.372 2164.912 854.2 2226 903l1.937 1.543c7.389 5.901 14.7 11.85 21.657 18.262 2.04 1.86 4.104 3.68 6.187 5.492 13.171 11.501 25.408 23.82 37.219 36.703l2.684 2.906c5.336 5.845 10.391 11.9 15.316 18.094l1.567 1.97c47.848 60.342 78.507 127.141 95.433 202.03l.7 3.082c3.041 13.476 5.71 27.016 8.309 40.584a3334.118 3334.118 0 0 0 5.554 28.209l.455 2.269 1.777 8.85c.807 4.017 1.61 8.034 2.408 12.053 3.1 15.598 6.288 31.177 9.472 46.758 2.476 12.112 4.945 24.225 7.352 36.351 2.282 11.457 4.634 22.9 6.973 34.344 2.7 13.214 5.401 26.427 8.027 39.656 2.282 11.457 4.634 22.9 6.973 34.344 2.7 13.214 5.401 26.427 8.027 39.656 2.691 13.51 5.47 27.003 8.233 40.498a6352.925 6352.925 0 0 1 6.209 30.69A8759.321 8759.321 0 0 0 2496.5 1627a52457.143 52457.143 0 0 1 3.466 16.98 3657.46 3657.46 0 0 1 3.405 16.9l.673 3.382c.416 2.096.83 4.192 1.244 6.289 1.267 6.387 2.672 12.732 4.15 19.074 5.971 26.657 9.52 54.149 11.562 81.375l.283 3.72c1.068 15.482 1.006 31.018 1.03 46.53 0 .741.002 1.482.004 2.246.047 29.859-.99 59.397-7.878 88.6-.657 2.85-1.19 5.722-1.751 8.592-11.33 51.989-34.195 108.226-80.524 138.512-36.519 22.938-77.133 21.736-118.039 12.863-47.262-10.834-92.548-31.387-134.125-56.063l-2.75-1.613c-27.995-16.455-54.912-35.085-80.25-55.387l-2.7-2.145a1409.956 1409.956 0 0 1-7.3-5.855l-2.531-2.035c-12.027-9.745-23.609-19.968-34.92-30.53a456.66 456.66 0 0 0-4.44-4.044c-7.551-6.82-14.782-13.956-21.984-21.141l-1.51-1.502c-5.2-5.178-10.306-10.394-15.081-15.97-2.39-2.77-4.906-5.422-7.409-8.09a265.168 265.168 0 0 1-12.668-14.641 452.966 452.966 0 0 0-5.633-6.844c-8.082-9.654-15.67-19.584-23.06-29.774-8.7-11.986-17.485-23.884-26.764-35.429l-1.558-1.94c-6.092-7.573-12.253-15.08-18.56-22.476a481.381 481.381 0 0 1-8.382-10.146c-4.128-5.076-8.503-9.878-12.95-14.672a273.957 273.957 0 0 1-5.987-6.703c-6.682-7.696-13.596-15.221-20.881-22.349-1.69-1.723-3.256-3.51-4.823-5.347-4.07-4.677-8.403-9.058-12.796-13.43l-2.303-2.314a239.747 239.747 0 0 0-12.985-12.066c-2.37-2.08-4.575-4.298-6.775-6.557-3.533-3.57-7.134-6.966-10.95-10.23-2.326-2.008-4.592-4.075-6.862-6.145-4.244-3.825-8.597-7.476-13.04-11.066a520.364 520.364 0 0 1-6.921-5.711c-35.294-29.5-75.742-59.204-120.492-72.062a160.532 160.532 0 0 1-5.158-1.571c-11.992-3.392-24.43-2.651-36.78-2.635-2.658-.007-5.315-.016-7.973-.026-6.446-.02-12.893-.025-19.34-.023a9483.005 9483.005 0 0 1-20.3-.017l-2.29-.003c-14.264-.019-28.53-.018-42.794-.01-13.006.005-26.011-.016-39.016-.05-13.397-.033-26.794-.048-40.19-.043a6185.36 6185.36 0 0 1-22.513-.028c-6.392-.022-12.783-.025-19.175-.006-3.252.009-6.503.008-9.754-.01-19.987-.104-38.157 2.16-56.577 10.324l-3.027 1.305c-45.605 19.995-86.67 51.914-123.118 85.523a368.343 368.343 0 0 1-6.438 5.711c-12.365 10.81-24.048 22.365-35.64 33.992a3630.52 3630.52 0 0 1-6.732 6.724l-4.361 4.366-1.992 1.986a221.883 221.883 0 0 0-10.988 11.888c-2.568 2.955-5.268 5.783-7.954 8.63a264.335 264.335 0 0 0-13.45 15.542c-2.305 2.803-4.717 5.475-7.175 8.145-4.894 5.33-9.46 10.87-14 16.5-.974 1.183-1.95 2.366-2.926 3.547-7.387 8.966-14.425 18.156-21.36 27.476a1129.638 1129.638 0 0 1-10.651 14.04c-3.458 4.5-6.876 9.016-10.188 13.625-7.292 10.104-15.147 19.74-23.242 29.207-2.516 2.95-4.952 5.96-7.383 8.98a117.038 117.038 0 0 1-9.582 10.46c-1.759 1.755-3.367 3.59-4.98 5.478-3.562 4.137-7.417 7.933-11.301 11.765a97.276 97.276 0 0 0-5.574 6.172c-4.623 5.415-9.994 10.091-15.22 14.91a230.51 230.51 0 0 0-8.03 7.778c-3.023 3.067-6.177 5.916-9.442 8.722-2.346 2.035-4.638 4.123-6.933 6.215-4.242 3.824-8.594 7.474-13.036 11.063a495.922 495.922 0 0 0-6.96 5.75c-9.668 8.09-19.599 15.708-29.815 23.092-2.356 1.705-4.705 3.42-7.053 5.138-9.284 6.776-18.674 13.339-28.324 19.582l-2.11 1.369c-21.93 14.178-44.554 26.916-67.89 38.631l-2.783 1.406c-15.008 7.534-30.499 13.709-46.217 19.594l-3.302 1.248c-23.475 8.789-47.784 14.841-72.698 17.752l-3.18.395c-30.192 3.136-60.695-1.706-85.82-19.395l-2.707-1.809C574.148 2045.563 561.043 2031.5 551 2016l-1.196-1.846c-13.695-21.438-23.28-44.93-30.804-69.154l-.707-2.243c-4.04-12.99-6.445-26.265-8.754-39.655-.452-2.601-.926-5.195-1.414-7.79-8.93-49.17-6.984-101.159-.875-150.5l.274-2.245c4.146-33.447 11.395-66.47 18.172-99.455 2.061-10.042 4.11-20.086 6.162-30.13l2.394-11.711c5.227-25.57 10.386-51.154 15.537-76.739a50921.383 50921.383 0 0 1 24.425-120.536 46003.84 46003.84 0 0 0 21.425-105.744c13.562-67.33 13.562-67.33 19.647-96.864l1.175-5.715C632.88 1115.796 666.35 1043.623 719 981l1.321-1.579c11.245-13.404 23.207-26.029 35.554-38.421l2.666-2.68A275.014 275.014 0 0 1 774 924a1306.88 1306.88 0 0 0 3.465-3.07c8.528-7.526 17.347-14.547 26.452-21.361a518.85 518.85 0 0 0 5.907-4.526c20.685-15.947 43.178-29.377 66.068-41.885a538.495 538.495 0 0 0 5.565-3.111c52.166-28.907 112.524-46.979 171.81-52.681 1.952-.191 3.903-.385 5.852-.601 17.908-1.983 35.757-2.054 53.746-2.028Z" fill="#FEFEFE"/><path d="m1177 941 2.157 1.14c19.83 10.496 37.939 23.32 54.386 38.587a237.53 237.53 0 0 0 6.645 5.898c6.824 5.947 12.99 12.452 18.812 19.375l1.347 1.576c23.877 28.034 42.7 61.227 53.653 96.424l.808 2.569c12.44 40.062 16.028 82.992 9.192 124.431l-.438 2.813c-10.466 66.76-46.887 131.555-100.562 173.187a11821.39 11821.39 0 0 0-3.797 3.02A280.946 280.946 0 0 1 1117 1461l-3.676 1.043c-69.936 18.955-147.38 7.244-210.204-27.845-21.446-12.307-41.951-27.352-59.12-45.198a412.72 412.72 0 0 0-7.508-7.402c-7.249-7.022-13.449-14.527-19.492-22.598l-1.555-2.043c-19.52-25.703-33.302-54.404-43.445-84.957l-.788-2.333C758.484 1231.544 757.338 1189.62 762 1150l.26-2.284c5.996-49.532 29.049-97.594 60.74-135.716l2.531-3.094C837.011 995.063 849.683 981.92 864 971c1.237-.987 2.472-1.975 3.707-2.965 38.934-30.893 85.791-50.273 134.793-57.785l2.277-.35c58.455-8.34 120.376 3.197 172.223 31.1ZM1981.438 907.875l2.957-.015c15.196.035 30.065 1.148 45.043 3.702l2.34.394c70.873 12.077 136.004 52.233 178.719 110.014a586.047 586.047 0 0 0 4.124 5.487c20.47 27.351 35.107 60.495 43.379 93.543l.98 3.574c17.703 68.223 4.329 144.378-30.41 204.917-9.602 16.217-20.62 31.796-33.57 45.509a645.897 645.897 0 0 0-3.188 3.75c-8.752 10.012-18.366 19.038-28.812 27.25a776.43 776.43 0 0 0-3.242 2.723c-24.851 20.787-54.184 35.91-84.758 46.277l-2.774.971c-14.498 5.063-29.114 8.366-44.226 11.029l-2.154.386c-14.455 2.557-28.959 2.851-43.596 2.864l-2.736.004c-14.702-.005-28.997-.75-43.514-3.254l-2.202-.372c-4.298-.747-8.545-1.66-12.798-2.628l-3.734-.762c-44.261-9.297-86.527-31.243-120.266-61.238l-4.063-3.5a925.905 925.905 0 0 1-3.937-3.5l-2.906-2.59c-5.76-5.174-11.127-10.464-16.094-16.41l-2.633-2.973c-11.988-13.567-22.586-28.186-31.367-44.027l-1.386-2.486c-8.123-14.708-14.836-29.741-20.614-45.514l-1.011-2.727c-24.01-65.894-18.152-143.213 11.011-206.273 10.027-21.159 22.196-40.849 37-59l1.268-1.575c12.232-15.122 26.151-29.74 41.732-41.425 1.183-.922 2.365-1.845 3.547-2.77 29.62-22.95 63.92-40.786 100.41-49.729 2.02-.495 4.031-1.018 6.043-1.544 22.263-5.677 44.536-7.978 67.438-8.082Z" fill="#2DBBC2"/><path d="M972 978h142v141h142v141h-142v140H972v-140H831v-141h141V978ZM2042.782 926.251c22.467 16.47 39.984 39.839 44.86 67.835 3.597 29.212-1.657 58.642-19.648 82.395-18.544 23.731-43.97 38.568-73.994 42.519-31.146 2.51-58.12-6.577-82.312-25.875-5.645-4.85-10.24-10.177-14.688-16.125l-1.828-2.32c-8.575-11.394-13.917-24.887-17.172-38.68l-.533-1.962c-1.67-6.554-1.813-12.923-1.78-19.663l.015-3.491c.397-28.9 13.074-54.45 33.417-74.541 14.426-13.71 31.61-21.97 50.881-26.343l2.022-.537c26.739-6.762 58.456 1.123 80.76 16.788Z" fill="#183D50"/><path d="M2226.805 1107.29c2.463 2.177 4.837 4.419 7.195 6.71l2.074 1.887c16.903 15.84 28.09 40.362 29.065 63.397.796 29.066.796 29.066-4.139 41.716-.453 1.265-.905 2.53-1.355 3.797-4.373 11.9-10.476 22.506-18.645 32.203l-1.984 2.426c-14.677 17.22-33.692 26.29-55.016 32.574l-3.715 1.18c-6.19 1.488-12.65 1.107-18.972 1.07l-3.897.023c-29.582-.06-54.1-11.522-75.291-31.773-13.03-13.607-21.092-29.56-26.125-47.5l-1.035-3.637c-6.152-25.553-1.446-53.408 12.207-75.75 15.187-23.97 37.136-41.525 64.828-48.613l3.465-.91c32.489-7.33 65.56.16 91.34 21.2Z" fill="#FE102C"/><path d="m2018 1265 2.127.795c27.556 10.477 47.881 30.987 60.37 57.365 10.84 24.931 10.77 54.593 1.04 79.851-4.843 11.945-10.775 22.443-19.537 31.989l-2.559 2.805c-18.01 18.872-43.948 31.54-70.171 32.379-31.106.59-58.17-8.075-81.27-29.184-12.814-12.48-20.798-26.403-27-43l-1.086-2.504c-6.84-18.678-5.982-41.85.086-60.496l.875-3.113c7.359-24.803 25.942-46.483 48.298-59.115 5.47-2.935 11.068-5.46 16.827-7.772l2.155-.873c20.663-7.91 49.37-7.097 69.845.873ZM1833 1087l2.192.7c15.817 5.164 29.355 12.053 41.808 23.3l2.55 2.3c18.949 18.006 30.937 43.074 31.653 69.266.38 28.868-6.486 55.804-26.903 77.075a1144.21 1144.21 0 0 1-4.3 4.359l-1.863 2.047c-15.088 16.323-40.517 26.877-62.476 28.146-32.532.758-60.395-5.869-84.747-28.814-14.8-14.486-24.976-32.21-29.914-52.379l-.529-2.112c-4.127-18.122-3.002-38.503 3.529-55.888l.811-2.166c10.514-27.229 30.609-48.395 57.08-60.714 21.361-9.41 48.728-12.276 71.109-5.12Z" fill="#183D50"/><path d="M2264 1206h1l-1 15h-3l3-15Z" fill="#3DB3BB"/><path d="M1700 1206h1l2 12h-3v-12Z" fill="#2FA9B2"/></svg>